<?xml version="1.0" encoding="UTF-8" standalone="no"?>
<svg
   version="1.1"
   x="0px"
   y="0px"
   viewBox="0 0 34 42.5"
   enable-background="new 0 0 34 34"
   xml:space="preserve"
   id="svg18"
   sodipodi:docname="jackhammer-icon.svg"
   inkscape:version="1.2.2 (732a01da63, 2022-12-09)"
   xmlns:inkscape="http://www.inkscape.org/namespaces/inkscape"
   xmlns:sodipodi="http://sodipodi.sourceforge.net/DTD/sodipodi-0.dtd"
   xmlns="http://www.w3.org/2000/svg"
   xmlns:svg="http://www.w3.org/2000/svg"><defs
     id="defs22" /><sodipodi:namedview
     id="namedview20"
     pagecolor="#505050"
     bordercolor="#eeeeee"
     borderopacity="1"
     inkscape:showpageshadow="0"
     inkscape:pageopacity="0"
     inkscape:pagecheckerboard="0"
     inkscape:deskcolor="#505050"
     showgrid="false"
     inkscape:zoom="19.6"
     inkscape:cx="24.744898"
     inkscape:cy="37.627551"
     inkscape:window-width="1920"
     inkscape:window-height="991"
     inkscape:window-x="1791"
     inkscape:window-y="-9"
     inkscape:window-maximized="1"
     inkscape:current-layer="svg18" /><g
     id="g12"><path
       d="M13,20c1.1,0,2,0.9,2,2v2h4v-2c0-1.1,0.9-2,2-2v-4h-8V20z"
       id="path2" /><polygon
       points="17,33 17,33 17,33  "
       id="polygon4" /><polygon
       points="16,31 17,33 18,31 18,26 16,26  "
       id="polygon6" /><path
       d="M29,9h-5V8h-2V6H12v2h-2v1H5c-0.5,0-1,0.5-1,1s0.5,1,1,1h5v1h2v2h10v-2h2v-1h5c0.5,0,1-0.5,1-1S29.5,9,29,9z"
       id="path8" /><path
       d="M22,3c0-1.1-0.9-2-2-2h-6c-1.1,0-2,0.9-2,2v1h10V3z"
       id="path10" /></g></svg>
